<svg width="18" height="16" viewBox="0 0 18 16" xmlns="http://www.w3.org/2000/svg">
<path  d="M0 4.88488C0 2.22299 2.15017 0.0200195 4.86486 0.0200195C6.98685 0.0200195 8.35921 1.37878 9 2.20675C9.6408 1.37878 11.0132 0.0200195 13.1351 0.0200195C15.8506 0.0200195 18 2.22304 18 4.88488C18 6.04989 17.5328 7.20624 16.8534 8.28502C16.1716 9.36762 15.252 10.4103 14.29 11.3577C12.9567 12.6708 11.4757 13.8587 10.4134 14.7107C9.9618 15.0729 9.5859 15.3744 9.3293 15.599C9.1407 15.7639 8.85926 15.7639 8.67075 15.599C8.41405 15.3744 8.03815 15.0729 7.58659 14.7107C6.52431 13.8587 5.04326 12.6708 3.70997 11.3577C2.74802 10.4103 1.82836 9.36762 1.14659 8.28502C0.46724 7.20624 0 6.04989 0 4.88488ZM4.86486 1.02002C2.70929 1.02002 1 2.7684 1 4.88488C1 5.78745 1.36553 6.75609 1.99277 7.7521C2.61759 8.74422 3.47833 9.72602 4.41165 10.6452C5.71033 11.9242 7.08423 13.025 8.13396 13.8661C8.45728 14.1252 8.74985 14.3596 9 14.567C9.2501 14.3596 9.5427 14.1252 9.866 13.8661C10.9158 13.025 12.2897 11.9242 13.5883 10.6452C14.5217 9.72602 15.3824 8.74422 16.0072 7.7521C16.6345 6.75609 17 5.78745 17 4.88488C17 2.76835 15.2914 1.02002 13.1351 1.02002C11.0406 1.02002 9.8181 2.72213 9.5033 3.2303C9.2727 3.60252 8.72727 3.60251 8.4967 3.23029C8.1819 2.72212 6.95944 1.02002 4.86486 1.02002Z" fill="#15151A"/>
</svg>
